<svg width="40" height="46" viewBox="0 0 40 46" fill="none" xmlns="http://www.w3.org/2000/svg">
<rect width="40" height="46" fill="#121212"/>
<path d="M4.896 31.592H6.912V23.656H8.896V17.736H10.848V11.816H13.184V17.736H15.168V23.656H17.12V31.592H19.104V37.896H16.8V31.912H7.264V37.896H4.896V31.592ZM14.816 29.608V24.008H12.832V18.088H11.2V24.008H9.216V29.608H14.816Z" fill="#B2B8AC"/>
<path d="M24.896 27.976H22.912V20.072H20.896V11.816H23.264V19.72H25.216V27.624H27.2V33.576H28.832V27.624H30.816V19.72H32.8V11.816H35.104V20.072H33.12V27.976H31.168V33.896H29.184V37.896H26.848V33.896H24.896V27.976Z" fill="#B2B8AC"/>
</svg>
