<svg width="40" height="40" viewBox="0 0 40 40" fill="none" xmlns="http://www.w3.org/2000/svg">
<g clip-path="url(#clip0_122_4)">
<path d="M40 0H0V40H40V0Z" fill="#121212"/>
<path d="M4.896 27.4714H6.912V20.5706H8.896V15.4227H10.848V10.2749H13.184V15.4227H15.168V20.5706H17.12V27.4714H19.104V32.9532H16.8V27.7497H7.264V32.9532H4.896V27.4714ZM14.816 25.7462V20.8766H12.832V15.7288H11.2V20.8766H9.216V25.7462H14.816Z" fill="#9FDE5D"/>
<path d="M24.896 24.3271H22.912V17.454H20.896V10.2749H23.264V17.1479H25.216V24.021H27.2V29.1966H28.832V24.021H30.816V17.1479H32.8V10.2749H35.104V17.454H33.12V24.3271H31.168V29.4749H29.184V32.9532H26.848V29.4749H24.896V24.3271Z" fill="#9FDE5D"/>
</g>
<defs>
<clipPath id="clip0_122_4">
<rect width="40" height="40" fill="white"/>
</clipPath>
</defs>
</svg>
